<svg
    width="135"
    height="115"
    viewBox="0 0 130 110"
    fill="none"
    xmlns="http://www.w3.org/2000/svg"
>
    <mask
        id="mask0_1745_91319"
        style="mask-type:alpha"
        maskUnits="userSpaceOnUse"
        x="0"
        y="0"
        width="170"
        height="170"
    >
        <circle
            cx="85"
            cy="85"
            r="84.65"
            fill="#22252B"
            stroke="#22252B"
            stroke-width="0.7"
            stroke-linecap="round"
            stroke-linejoin="bevel"
        />
    </mask>
    <!-- <g mask="url(#mask0_1745_91319)">
        <path
            d="M86.3984 83.5009H366.398M86.3984 83.5009L365.333 59.0974M86.3984 83.5009L362.145 34.8795M86.3984 83.5009L356.858 11.0316M86.3984 83.5009L349.512 -12.2647M86.3984 83.5009L340.165 -34.8322M86.3984 83.5009L328.885 -56.499M86.3984 83.5009L315.761 -77.1005M86.3984 83.5009L300.891 -96.4796M86.3984 83.5009L284.388 -114.489M86.3984 83.5009L266.379 -130.991M86.3984 83.5009L247 -145.862M86.3984 83.5009L226.398 -158.986M86.3984 83.5009L204.732 -170.265M86.3984 83.5009L182.164 -179.613M86.3984 83.5009L158.868 -186.958M86.3984 83.5009L135.02 -192.245M86.3984 83.5009L110.802 -195.434M86.3984 83.5009L86.3984 -196.499M86.3984 83.5009L61.9948 -195.434M86.3984 83.5009L37.7769 -192.245M86.3984 83.5009L13.9291 -186.958M86.3984 83.5009L-9.36722 -179.613M86.3984 83.5009L-31.9347 -170.265M86.3984 83.5009L-53.6016 -158.986M86.3984 83.5009L-74.203 -145.862M86.3984 83.5009L-93.5821 -130.991M86.3984 83.5009L-111.591 -114.489M86.3984 83.5009L-128.094 -96.4796M86.3984 83.5009L-142.964 -77.1005M86.3984 83.5009L-156.089 -56.499M86.3984 83.5009L-167.368 -34.8322M86.3984 83.5009L-176.715 -12.2647M86.3984 83.5009L-184.061 11.0316M86.3984 83.5009L-189.348 34.8795M86.3984 83.5009L-192.536 59.0974M86.3984 83.5009L-193.602 83.501M86.3984 83.5009L365.333 107.905M86.3984 83.5009L362.145 132.122M86.3984 83.5009L356.858 155.97M86.3984 83.5009L349.512 179.267M86.3984 83.5009L340.165 201.834M86.3984 83.5009L328.885 223.501M86.3984 83.5009L315.761 244.102M86.3984 83.5009L300.891 263.481M86.3984 83.5009L284.388 281.491M86.3984 83.5009L266.379 297.993M86.3984 83.5009L247 312.864M86.3984 83.5009L226.398 325.988M86.3984 83.5009L204.732 337.267M86.3984 83.5009L182.164 346.615M86.3984 83.5009L158.868 353.96M86.3984 83.5009L135.02 359.247M86.3984 83.5009L110.802 362.435M86.3984 83.5009L86.3984 363.501M86.3984 83.5009L61.9948 362.435M86.3984 83.5009L37.7769 359.247M86.3984 83.5009L13.9291 353.96M86.3984 83.5009L-9.36722 346.615M86.3984 83.5009L-31.9347 337.267M86.3984 83.5009L-53.6016 325.988M86.3984 83.5009L-74.203 312.864M86.3984 83.5009L-93.5821 297.993M86.3984 83.5009L-111.591 281.491M86.3984 83.5009L-128.094 263.481M86.3984 83.5009L-142.964 244.102M86.3984 83.5009L-156.089 223.501M86.3984 83.5009L-167.368 201.834M86.3984 83.5009L-176.715 179.267M86.3984 83.5009L-184.061 155.97M86.3984 83.5009L-189.348 132.122M86.3984 83.5009L-192.536 107.905"
            stroke="#1B242F"
            stroke-width="0.7"
            stroke-linecap="round"
            stroke-linejoin="bevel"
        />
    </g> -->
    <path
        d="M93.0678 102.832C92.0002 101.765 90.9017 100.058 90.1019 96.9767C91.2291 98.0046 92.4677 98.8508 93.7478 99.5391C98.3413 102.009 103.422 102.453 105.753 102.453C108.357 102.453 112.697 101.473 116.443 98.7253C120.316 95.8854 123.5 91.184 123.5 84.0465C123.5 69.916 112.863 63.9651 105.753 63.9651C103.853 63.9651 102.118 64.2616 100.594 64.6816C100.8 64.3105 101.003 63.9316 101.2 63.5468C102.668 60.689 104.018 57.1885 104.018 53.907C104.018 46.1473 98.1145 35.5 84.5765 35.5C71.0384 35.5 65.1353 46.1473 65.1353 53.907C65.1353 57.6318 66.9429 61.4563 68.6967 64.3563C67.3943 64.1155 65.9173 63.9651 64.2471 63.9651C57.2502 63.9651 52.7182 67.7421 50.0501 72.0574C47.4481 76.2656 46.5 81.1274 46.5 84.0465C46.5 86.8886 47.2036 91.4417 50.0487 95.3541C52.9955 99.4063 58.0138 102.453 65.9412 102.453C72.4582 102.453 77.1001 99.4704 80.1773 95.7801C79.3952 99.4644 78.2121 101.268 76.7738 103.006C76.1923 103.709 74.809 104.632 73.0311 105.614C72.3311 106 71.6446 106.357 71.0081 106.688C70.8869 106.751 70.7676 106.814 70.6503 106.875C69.9841 107.222 69.25 107.607 68.7707 107.933L62.0541 112.5H70.1765H100.637H108.325L102.108 107.978C101.609 107.615 100.788 107.185 100.053 106.807C99.6746 106.612 99.301 106.423 98.9163 106.228C98.4174 105.975 97.9001 105.713 97.3295 105.418C96.3671 104.919 95.4286 104.414 94.6351 103.936C93.7976 103.431 93.2894 103.054 93.0678 102.832Z"
        fill="#1B242F"
        stroke="white"
        stroke-width="5"
    />
</svg>