<svg
    width="135"
    height="115"
    viewBox="0 0 130 110"
    fill="none"
    xmlns="http://www.w3.org/2000/svg"
>
    <mask
        id="mask0_1745_92529"
        style="mask-type:alpha"
        maskUnits="userSpaceOnUse"
        x="0"
        y="0"
        width="170"
        height="170"
    >
        <circle
            cx="85"
            cy="85"
            r="84.65"
            fill="#22252B"
            stroke="#22252B"
            stroke-width="0.7"
            stroke-linecap="round"
            stroke-linejoin="bevel"
        />
    </mask>
    <!-- <g mask="url(#mask0_1745_92529)">
        <path
            d="M86.3984 83.5009H366.398M86.3984 83.5009L365.333 59.0974M86.3984 83.5009L362.145 34.8795M86.3984 83.5009L356.858 11.0316M86.3984 83.5009L349.512 -12.2647M86.3984 83.5009L340.165 -34.8322M86.3984 83.5009L328.885 -56.499M86.3984 83.5009L315.761 -77.1005M86.3984 83.5009L300.891 -96.4796M86.3984 83.5009L284.388 -114.489M86.3984 83.5009L266.379 -130.991M86.3984 83.5009L247 -145.862M86.3984 83.5009L226.398 -158.986M86.3984 83.5009L204.732 -170.265M86.3984 83.5009L182.164 -179.613M86.3984 83.5009L158.868 -186.958M86.3984 83.5009L135.02 -192.245M86.3984 83.5009L110.802 -195.434M86.3984 83.5009L86.3984 -196.499M86.3984 83.5009L61.9948 -195.434M86.3984 83.5009L37.7769 -192.245M86.3984 83.5009L13.9291 -186.958M86.3984 83.5009L-9.36722 -179.613M86.3984 83.5009L-31.9347 -170.265M86.3984 83.5009L-53.6016 -158.986M86.3984 83.5009L-74.203 -145.862M86.3984 83.5009L-93.5821 -130.991M86.3984 83.5009L-111.591 -114.489M86.3984 83.5009L-128.094 -96.4796M86.3984 83.5009L-142.964 -77.1005M86.3984 83.5009L-156.089 -56.499M86.3984 83.5009L-167.368 -34.8322M86.3984 83.5009L-176.715 -12.2647M86.3984 83.5009L-184.061 11.0316M86.3984 83.5009L-189.348 34.8795M86.3984 83.5009L-192.536 59.0974M86.3984 83.5009L-193.602 83.501M86.3984 83.5009L365.333 107.905M86.3984 83.5009L362.145 132.122M86.3984 83.5009L356.858 155.97M86.3984 83.5009L349.512 179.267M86.3984 83.5009L340.165 201.834M86.3984 83.5009L328.885 223.501M86.3984 83.5009L315.761 244.102M86.3984 83.5009L300.891 263.481M86.3984 83.5009L284.388 281.491M86.3984 83.5009L266.379 297.993M86.3984 83.5009L247 312.864M86.3984 83.5009L226.398 325.988M86.3984 83.5009L204.732 337.267M86.3984 83.5009L182.164 346.615M86.3984 83.5009L158.868 353.96M86.3984 83.5009L135.02 359.247M86.3984 83.5009L110.802 362.435M86.3984 83.5009L86.3984 363.501M86.3984 83.5009L61.9948 362.435M86.3984 83.5009L37.7769 359.247M86.3984 83.5009L13.9291 353.96M86.3984 83.5009L-9.36722 346.615M86.3984 83.5009L-31.9347 337.267M86.3984 83.5009L-53.6016 325.988M86.3984 83.5009L-74.203 312.864M86.3984 83.5009L-93.5821 297.993M86.3984 83.5009L-111.591 281.491M86.3984 83.5009L-128.094 263.481M86.3984 83.5009L-142.964 244.102M86.3984 83.5009L-156.089 223.501M86.3984 83.5009L-167.368 201.834M86.3984 83.5009L-176.715 179.267M86.3984 83.5009L-184.061 155.97M86.3984 83.5009L-189.348 132.122M86.3984 83.5009L-192.536 107.905"
            stroke="#C02F2F"
            stroke-width="0.7"
            stroke-linecap="round"
            stroke-linejoin="bevel"
        />
    </g> -->
    <path
        d="M54.3115 72.1564L52.1612 74.1254L54.4349 75.9495L54.4349 75.9495L54.4351 75.9497L54.4356 75.95L54.4373 75.9514L54.4509 75.9624L54.5125 76.0125C54.5686 76.0584 54.6545 76.129 54.768 76.2234C54.9948 76.4124 55.3317 76.6966 55.7607 77.0691C56.6191 77.8143 57.8449 78.9113 59.2966 80.304C62.2051 83.0943 65.9949 87.0472 69.5503 91.7149C73.1651 96.4604 76.5622 101.366 79.0601 105.092C80.3077 106.953 81.3281 108.516 82.0356 109.612C82.3893 110.16 82.6647 110.591 82.8511 110.884C82.9442 111.031 83.0151 111.143 83.0625 111.218L83.1155 111.302L83.1285 111.323L83.1315 111.327L83.1321 111.328L83.1322 111.328L83.1322 111.329L85.311 114.802L87.4008 111.274L87.4008 111.274L87.4009 111.274L87.4014 111.273L87.4042 111.269L87.4167 111.248L87.4689 111.16C87.5156 111.082 87.5859 110.965 87.6784 110.812C87.8634 110.506 88.1374 110.057 88.4895 109.488C89.1938 108.351 90.21 106.739 91.4525 104.848C93.9431 101.058 97.3192 96.1851 100.901 91.7765C104.48 87.3717 108.296 83.392 111.227 80.5064C112.689 79.0661 113.926 77.9041 114.794 77.1045C115.228 76.7048 115.57 76.3959 115.801 76.1885C115.917 76.0848 116.005 76.0064 116.063 75.9548L116.128 75.8975L116.143 75.8842L116.146 75.8814L116.146 75.8812L116.147 75.881L116.147 75.881L118.237 74.0519L116.198 72.1654L116.198 72.1653L116.198 72.1652L116.197 72.1646L116.193 72.1608L116.175 72.1442L116.102 72.0753C116.036 72.0139 115.937 71.9216 115.809 71.8007C115.552 71.5588 115.176 71.2026 114.704 70.7491C113.76 69.8418 112.434 68.547 110.91 67.0019C107.851 63.9012 104.039 59.8358 100.923 55.8903C97.7769 51.908 94.3872 47.1036 91.7705 43.2725C90.4653 41.3616 89.3587 39.702 88.5788 38.5209C88.189 37.9305 87.881 37.46 87.671 37.1378C87.566 36.9768 87.4855 36.8528 87.4315 36.7695L87.3706 36.6755L87.3556 36.6522L87.352 36.6466L87.3512 36.6454L87.351 36.6452L87.351 36.6451L85.2584 33.3999L83.1539 36.6375L83.1537 36.6378L83.1529 36.639L83.1493 36.6446L83.1342 36.6678L83.0732 36.7613C83.0191 36.8441 82.9385 36.9673 82.8334 37.1274C82.6232 37.4476 82.315 37.9153 81.925 38.5026C81.1446 39.6774 80.0374 41.3295 78.7315 43.2359C76.1139 47.0569 72.7205 51.867 69.569 55.9009C66.4568 59.8845 62.6495 63.9454 59.5935 67.0324C58.0708 68.5705 56.7457 69.8557 55.8028 70.7551C55.3314 71.2046 54.9561 71.5573 54.6997 71.7965C54.5716 71.916 54.4733 72.0072 54.4076 72.0678L54.334 72.1357L54.3163 72.152L54.3123 72.1556L54.3117 72.1562L54.3116 72.1563L54.3115 72.1564Z"
        fill="#C02F2F"
        stroke="white"
        stroke-width="5"
    />
</svg>