<svg
    width="135"
    height="115"
    viewBox="0 0 130 110"
    fill="none"
    xmlns="http://www.w3.org/2000/svg"
>
    <mask
        id="mask0_1745_92528"
        style="mask-type:alpha"
        maskUnits="userSpaceOnUse"
        x="0"
        y="0"
        width="170"
        height="170"
    >
        <circle
            cx="85"
            cy="85"
            r="84.65"
            fill="#22252B"
            stroke="#22252B"
            stroke-width="0.7"
            stroke-linecap="round"
            stroke-linejoin="bevel"
        />
    </mask>
    <!-- <g mask="url(#mask0_1745_92528)">
        <path
            d="M86.3984 83.5009H366.398M86.3984 83.5009L365.333 59.0974M86.3984 83.5009L362.145 34.8795M86.3984 83.5009L356.858 11.0316M86.3984 83.5009L349.512 -12.2647M86.3984 83.5009L340.165 -34.8322M86.3984 83.5009L328.885 -56.499M86.3984 83.5009L315.761 -77.1005M86.3984 83.5009L300.891 -96.4796M86.3984 83.5009L284.388 -114.489M86.3984 83.5009L266.379 -130.991M86.3984 83.5009L247 -145.862M86.3984 83.5009L226.398 -158.986M86.3984 83.5009L204.732 -170.265M86.3984 83.5009L182.164 -179.613M86.3984 83.5009L158.868 -186.958M86.3984 83.5009L135.02 -192.245M86.3984 83.5009L110.802 -195.434M86.3984 83.5009L86.3984 -196.499M86.3984 83.5009L61.9948 -195.434M86.3984 83.5009L37.7769 -192.245M86.3984 83.5009L13.9291 -186.958M86.3984 83.5009L-9.36722 -179.613M86.3984 83.5009L-31.9347 -170.265M86.3984 83.5009L-53.6016 -158.986M86.3984 83.5009L-74.203 -145.862M86.3984 83.5009L-93.5821 -130.991M86.3984 83.5009L-111.591 -114.489M86.3984 83.5009L-128.094 -96.4796M86.3984 83.5009L-142.964 -77.1005M86.3984 83.5009L-156.089 -56.499M86.3984 83.5009L-167.368 -34.8322M86.3984 83.5009L-176.715 -12.2647M86.3984 83.5009L-184.061 11.0316M86.3984 83.5009L-189.348 34.8795M86.3984 83.5009L-192.536 59.0974M86.3984 83.5009L-193.602 83.501M86.3984 83.5009L365.333 107.905M86.3984 83.5009L362.145 132.122M86.3984 83.5009L356.858 155.97M86.3984 83.5009L349.512 179.267M86.3984 83.5009L340.165 201.834M86.3984 83.5009L328.885 223.501M86.3984 83.5009L315.761 244.102M86.3984 83.5009L300.891 263.481M86.3984 83.5009L284.388 281.491M86.3984 83.5009L266.379 297.993M86.3984 83.5009L247 312.864M86.3984 83.5009L226.398 325.988M86.3984 83.5009L204.732 337.267M86.3984 83.5009L182.164 346.615M86.3984 83.5009L158.868 353.96M86.3984 83.5009L135.02 359.247M86.3984 83.5009L110.802 362.435M86.3984 83.5009L86.3984 363.501M86.3984 83.5009L61.9948 362.435M86.3984 83.5009L37.7769 359.247M86.3984 83.5009L13.9291 353.96M86.3984 83.5009L-9.36722 346.615M86.3984 83.5009L-31.9347 337.267M86.3984 83.5009L-53.6016 325.988M86.3984 83.5009L-74.203 312.864M86.3984 83.5009L-93.5821 297.993M86.3984 83.5009L-111.591 281.491M86.3984 83.5009L-128.094 263.481M86.3984 83.5009L-142.964 244.102M86.3984 83.5009L-156.089 223.501M86.3984 83.5009L-167.368 201.834M86.3984 83.5009L-176.715 179.267M86.3984 83.5009L-184.061 155.97M86.3984 83.5009L-189.348 132.122M86.3984 83.5009L-192.536 107.905"
            stroke="#C02F2F"
            stroke-width="0.7"
            stroke-linecap="round"
            stroke-linejoin="bevel"
        />
    </g> -->
    <path
        d="M89.3688 45.6823C87.7375 47.4375 86.4275 49.3729 85.3765 51.1887C84.5421 49.9417 83.4936 48.5568 82.2473 47.19C78.8509 43.4653 73.6297 39.5 67 39.5C55.0381 39.5 46.5 49.2689 46.5 61.2297C46.5 65.2192 47.1682 68.5768 48.9483 72.2671C50.6804 75.8582 53.4369 79.6997 57.4479 84.7132C61.5778 89.8752 67.2008 95.273 71.8617 99.5179C73.7809 101.266 75.5578 102.837 77.0127 104.123C77.3309 104.404 77.6337 104.672 77.9192 104.925C78.7207 105.635 79.3749 106.219 79.8617 106.67C80.2926 107.069 80.4877 107.27 80.5459 107.33C80.5626 107.347 80.568 107.352 80.5645 107.348C81.5977 108.718 82.8825 110.65 83.1821 111.226L85.4017 115.493L87.6186 111.225L87.6391 111.186L87.6392 111.185C87.9044 110.675 88.7122 109.12 90.1165 107.453C90.116 107.453 90.1226 107.445 90.1386 107.427C90.1541 107.41 90.175 107.387 90.2021 107.358C90.2567 107.299 90.3283 107.224 90.4183 107.131C90.5984 106.945 90.8349 106.705 91.125 106.416C91.7046 105.837 92.4737 105.082 93.3837 104.194C94.3592 103.242 95.4822 102.152 96.695 100.974C97.752 99.9474 98.8772 98.8547 100.032 97.7301C104.941 92.95 110.393 87.5891 112.866 84.815C117.791 79.2901 123.5 70.6266 123.5 61.2297C123.5 48.813 114.495 39.5 103 39.5C96.9326 39.5 92.5099 42.3027 89.3688 45.6823Z"
        fill="#C02F2F"
        stroke="white"
        stroke-width="5"
    />
</svg>