<svg
    width="135"
    height="115"
    viewBox="0 0 130 110"
    fill="none"
    xmlns="http://www.w3.org/2000/svg"
>
    <mask
        id="mask0_1745_91320"
        style="mask-type:alpha"
        maskUnits="userSpaceOnUse"
        x="0"
        y="0"
        width="170"
        height="170"
    >
        <circle
            cx="85"
            cy="85"
            r="84.65"
            fill="#22252B"
            stroke="#22252B"
            stroke-width="0.7"
            stroke-linecap="round"
            stroke-linejoin="bevel"
        />
    </mask>
    <!-- <g mask="url(#mask0_1745_91320)">
        <path
            d="M86.3984 83.5009H366.398M86.3984 83.5009L365.333 59.0974M86.3984 83.5009L362.145 34.8795M86.3984 83.5009L356.858 11.0316M86.3984 83.5009L349.512 -12.2647M86.3984 83.5009L340.165 -34.8322M86.3984 83.5009L328.885 -56.499M86.3984 83.5009L315.761 -77.1005M86.3984 83.5009L300.891 -96.4796M86.3984 83.5009L284.388 -114.489M86.3984 83.5009L266.379 -130.991M86.3984 83.5009L247 -145.862M86.3984 83.5009L226.398 -158.986M86.3984 83.5009L204.732 -170.265M86.3984 83.5009L182.164 -179.613M86.3984 83.5009L158.868 -186.958M86.3984 83.5009L135.02 -192.245M86.3984 83.5009L110.802 -195.434M86.3984 83.5009L86.3984 -196.499M86.3984 83.5009L61.9948 -195.434M86.3984 83.5009L37.7769 -192.245M86.3984 83.5009L13.9291 -186.958M86.3984 83.5009L-9.36722 -179.613M86.3984 83.5009L-31.9347 -170.265M86.3984 83.5009L-53.6016 -158.986M86.3984 83.5009L-74.203 -145.862M86.3984 83.5009L-93.5821 -130.991M86.3984 83.5009L-111.591 -114.489M86.3984 83.5009L-128.094 -96.4796M86.3984 83.5009L-142.964 -77.1005M86.3984 83.5009L-156.089 -56.499M86.3984 83.5009L-167.368 -34.8322M86.3984 83.5009L-176.715 -12.2647M86.3984 83.5009L-184.061 11.0316M86.3984 83.5009L-189.348 34.8795M86.3984 83.5009L-192.536 59.0974M86.3984 83.5009L-193.602 83.501M86.3984 83.5009L365.333 107.905M86.3984 83.5009L362.145 132.122M86.3984 83.5009L356.858 155.97M86.3984 83.5009L349.512 179.267M86.3984 83.5009L340.165 201.834M86.3984 83.5009L328.885 223.501M86.3984 83.5009L315.761 244.102M86.3984 83.5009L300.891 263.481M86.3984 83.5009L284.388 281.491M86.3984 83.5009L266.379 297.993M86.3984 83.5009L247 312.864M86.3984 83.5009L226.398 325.988M86.3984 83.5009L204.732 337.267M86.3984 83.5009L182.164 346.615M86.3984 83.5009L158.868 353.96M86.3984 83.5009L135.02 359.247M86.3984 83.5009L110.802 362.435M86.3984 83.5009L86.3984 363.501M86.3984 83.5009L61.9948 362.435M86.3984 83.5009L37.7769 359.247M86.3984 83.5009L13.9291 353.96M86.3984 83.5009L-9.36722 346.615M86.3984 83.5009L-31.9347 337.267M86.3984 83.5009L-53.6016 325.988M86.3984 83.5009L-74.203 312.864M86.3984 83.5009L-93.5821 297.993M86.3984 83.5009L-111.591 281.491M86.3984 83.5009L-128.094 263.481M86.3984 83.5009L-142.964 244.102M86.3984 83.5009L-156.089 223.501M86.3984 83.5009L-167.368 201.834M86.3984 83.5009L-176.715 179.267M86.3984 83.5009L-184.061 155.97M86.3984 83.5009L-189.348 132.122M86.3984 83.5009L-192.536 107.905"
            stroke="#1B242F"
            stroke-width="0.7"
            stroke-linecap="round"
            stroke-linejoin="bevel"
        />
    </g> -->
    <path
        d="M84.9153 38C83.1046 36.2763 83.1045 36.2763 83.1043 36.2765L83.1036 36.2772L83.1008 36.2802L83.0896 36.2919L83.0455 36.3383L82.8732 36.5193L82.2173 37.2085C81.651 37.8035 80.8393 38.6565 79.8578 39.6882C77.8947 41.7517 75.252 44.5304 72.5338 47.3911C67.1093 53.1 61.3513 59.1699 60.1261 60.5005C59.8806 60.767 59.5445 61.0996 59.1426 61.4972C56.1478 64.4601 49.5 71.0371 49.5 80.85C49.5 85.1134 51.2344 89.8681 54.1 93.5691C56.974 97.281 61.2577 100.257 66.4949 100.257C72.9644 100.257 77.6262 98.2379 80.2868 95.4208C80.1756 97.5964 79.4231 99.4878 77.8665 100.803C76.9331 101.591 74.934 102.714 72.7616 103.726C71.7147 104.214 70.6965 104.644 69.8475 104.965C68.9387 105.309 68.3915 105.462 68.2115 105.491C67.0417 105.679 65.5701 106.382 64.6721 106.836C64.1596 107.095 63.6995 107.345 63.3684 107.529C63.2021 107.621 63.0667 107.698 62.9714 107.753C62.9237 107.78 62.8859 107.802 62.8593 107.817L62.8278 107.836L62.8186 107.841L62.8156 107.843L62.8145 107.843L62.8141 107.844C62.8139 107.844 62.8138 107.844 64.079 110L62.8138 107.844L54.8783 112.5H64.079H105.751H113.916L107.151 107.929C106.469 107.468 105.31 106.885 104.418 106.464C103.944 106.24 103.483 106.033 103.113 105.878C102.93 105.801 102.747 105.727 102.584 105.668C102.504 105.64 102.401 105.604 102.289 105.572C102.288 105.571 102.287 105.571 102.285 105.57C102.26 105.563 102.144 105.528 101.976 105.499C101.931 105.487 101.866 105.467 101.779 105.44C101.537 105.366 101.185 105.251 100.748 105.102C99.8763 104.803 98.7068 104.38 97.4651 103.886C96.2193 103.39 94.9292 102.835 93.8047 102.276C92.6378 101.695 91.8091 101.187 91.3728 100.814C89.6424 99.3317 89.2753 97.7841 89.2318 95.4042C91.4856 98.033 95.2939 100.257 101.524 100.257C107.184 100.257 111.871 98.0842 115.121 94.4742C118.344 90.8936 120.028 86.0448 120.028 80.85C120.028 75.9787 118.122 71.5775 115.946 68.1149C113.76 64.6367 111.189 61.928 109.602 60.3953C108.146 58.9906 102.467 53.0044 97.0767 47.2887C94.3984 44.4484 91.8141 41.6989 89.8992 39.6592C88.9418 38.6395 88.1519 37.7973 87.6013 37.2101L86.9641 36.5303L86.797 36.3519L86.7543 36.3063L86.7435 36.2948L86.7408 36.292L86.7401 36.2912C86.74 36.2911 86.7399 36.291 84.9153 38ZM84.9153 38L83.1046 36.2763L84.9301 34.3587L86.7399 36.291L84.9153 38Z"
        fill="#1B242F"
        stroke="white"
        stroke-width="5"
    />
</svg>