<svg xmlns="http://www.w3.org/2000/svg" width="13" height="13" viewBox="0 0 13 13" fill="none">
    <path d="M6.07143 9.566V2.15171L4.07429 4.14886L3.46743 3.53343L6.5 0.5L9.53343 3.53343L8.92657 4.14971L6.92857 2.15171V9.566H6.07143ZM1.88514 12.5C1.49029 12.5 1.16086 12.368 0.896857 12.104C0.632857 11.84 0.500571 11.5103 0.5 11.1149V9.038H1.35714V11.1149C1.35714 11.2469 1.412 11.368 1.52171 11.4783C1.63143 11.5886 1.75229 11.6434 1.88429 11.6429H11.1157C11.2471 11.6429 11.368 11.588 11.4783 11.4783C11.5886 11.3686 11.6434 11.2474 11.6429 11.1149V9.038H12.5V11.1149C12.5 11.5097 12.368 11.8391 12.104 12.1031C11.84 12.3671 11.5103 12.4994 11.1149 12.5H1.88514Z" fill="white" fillOpacity="0.4" />
    <path d="M5.97143 9.566V9.666H6.07143H6.92857H7.02857V9.566V2.39314L8.85586 4.22043L8.92712 4.29168L8.99783 4.21988L9.60468 3.60359L9.67431 3.53289L9.60414 3.46272L6.57071 0.429289L6.49999 0.358569L6.42928 0.429299L3.39671 3.46273L3.32651 3.53294L3.39622 3.60364L4.00308 4.21907L4.07379 4.29078L4.145 4.21957L5.97143 2.39314V9.566ZM0.4 11.1149L0.4 11.115C0.400607 11.5352 0.542235 11.8908 0.826146 12.1747C1.11007 12.4586 1.46546 12.6 1.88514 12.6H11.1149L11.115 12.6C11.5352 12.5994 11.8908 12.4578 12.1747 12.1739C12.4586 11.8899 12.6 11.5345 12.6 11.1149V9.038V8.938H12.5H11.6429H11.5429V9.038L11.5429 11.1149L11.5429 11.1153C11.5433 11.2165 11.5026 11.313 11.4078 11.4074C11.3125 11.5021 11.2159 11.5429 11.1157 11.5429L1.88429 11.5429L1.88385 11.5429C1.78336 11.5433 1.68708 11.5027 1.59261 11.4078C1.49796 11.3126 1.45714 11.2158 1.45714 11.1149V9.038V8.938H1.35714H0.5H0.4V9.038L0.4 11.1149Z" stroke="white" stroke-opacity="0.4" stroke-width="0.2" />
</svg>
